<svg xmlns="http://www.w3.org/2000/svg" width="195" height="60.103" viewBox="0 0 195 60.103"><g transform="translate(-199.7 -151.9)"><g transform="translate(199.7 151.9)"><path d="M204.6,177.629a16.5,16.5,0,0,1-4.9-1.9l2.741-6.207a17.2,17.2,0,0,0,4.041,1.679,15.771,15.771,0,0,0,4.3.628,6.618,6.618,0,0,0,2.524-.347,1.1,1.1,0,0,0,.758-1.029c0-.531-.336-.921-1-1.192a22.128,22.128,0,0,0-3.272-.867,36.267,36.267,0,0,1-4.875-1.322,8.249,8.249,0,0,1-3.391-2.307,6.27,6.27,0,0,1-1.441-4.355,7.5,7.5,0,0,1,1.333-4.333,8.824,8.824,0,0,1,3.987-3.066,16.554,16.554,0,0,1,6.446-1.116,23.114,23.114,0,0,1,5.113.563,15.806,15.806,0,0,1,4.42,1.647l-2.568,6.175a15.762,15.762,0,0,0-7.042-1.874q-3.282,0-3.283,1.592,0,.764.975,1.138a21.518,21.518,0,0,0,3.217.813,32.889,32.889,0,0,1,4.875,1.246,8.434,8.434,0,0,1,3.445,2.3,6.154,6.154,0,0,1,1.462,4.333,7.411,7.411,0,0,1-1.332,4.312,8.975,8.975,0,0,1-3.987,3.066,16.34,16.34,0,0,1-6.446,1.138A27.242,27.242,0,0,1,204.6,177.629Z" transform="translate(-199.7 -151.9)" fill="#fff"/><path d="M442.8,163.808h-7.4V157.2h23.324v6.608h-7.4v18.666H442.8Z" transform="translate(-409.866 -156.626)" fill="#fff"/><path d="M988.733,176.126h-2.307v6.359H977.9V157.2h12.166a14.942,14.942,0,0,1,6.1,1.159,9.361,9.361,0,0,1,4.193,13.119,8.818,8.818,0,0,1-3.542,3.217l5.308,7.8h-9.1Zm3.391-11.57a3.768,3.768,0,0,0-2.6-.78h-3.109V169.7h3.109a3.768,3.768,0,0,0,2.6-.78,3.183,3.183,0,0,0,0-4.366Z" transform="translate(-893.595 -156.626)" fill="#fff"/><path d="M1235.6,163.808h-7.4V157.2h23.324v6.608h-7.4v18.666H1235.6Z" transform="translate(-1116.779 -156.626)" fill="#fff"/><path d="M1498.05,179.918q-3.25-3.136-3.25-8.807V157.2h8.526v13.65a6.57,6.57,0,0,0,1,4.041,3.885,3.885,0,0,0,5.742,0,6.569,6.569,0,0,0,1-4.041V157.2h8.374v13.9q0,5.671-3.25,8.808t-9.067,3.142C1503.239,183.059,1500.217,182.008,1498.05,179.918Z" transform="translate(-1354.497 -156.626)" fill="#fff"/><path d="M1799.276,158.359a8.755,8.755,0,0,1,5.417,8.385,9.061,9.061,0,0,1-1.408,5.059,8.964,8.964,0,0,1-4.008,3.326,14.941,14.941,0,0,1-6.1,1.159h-3.651V182.5H1781V157.2h12.166A14.958,14.958,0,0,1,1799.276,158.359Zm-4.041,10.563a3.2,3.2,0,0,0,0-4.377,3.768,3.768,0,0,0-2.6-.78h-3.109v5.926h3.109A3.714,3.714,0,0,0,1795.235,168.922Z" transform="translate(-1609.692 -156.626)" fill="#fff"/><path d="M232.576,474.448a8.754,8.754,0,0,1,5.417,8.385,9.062,9.062,0,0,1-1.408,5.059,8.965,8.965,0,0,1-4.008,3.326,14.942,14.942,0,0,1-6.1,1.159h-3.651v6.208H214.3V473.3h12.166A14.962,14.962,0,0,1,232.576,474.448Zm-4.041,10.563a3.2,3.2,0,0,0,0-4.377,3.768,3.768,0,0,0-2.6-.78h-3.109v5.926h3.109A3.714,3.714,0,0,0,228.535,485.011Z" transform="translate(-212.718 -438.482)" fill="#fff"/><path d="M751,473.3h8.526v18.666h11.407v6.608H751Z" transform="translate(-691.276 -438.482)" fill="#fff"/><path d="M977.566,494.165h-9.6l-1.7,4.409H957.6L968.65,473.3h8.374l11.05,25.274h-8.807Zm-2.351-6.132-2.459-6.359-2.459,6.359Z" transform="translate(-875.494 -438.482)" fill="#fff"/><path d="M1299.417,473.3v25.274h-7.009l-9.6-11.483v11.483H1274.5V473.3h7.009l9.6,11.483V473.3Z" transform="translate(-1158.063 -438.482)" fill="#fff"/><path d="M1565.5,473.3h12.458a17.1,17.1,0,0,1,7.453,1.538,11.6,11.6,0,0,1,5.016,4.388,13.513,13.513,0,0,1,0,13.433,11.6,11.6,0,0,1-5.016,4.388,17.253,17.253,0,0,1-7.453,1.538H1565.5Zm12.09,18.633a6.065,6.065,0,0,0,4.387-1.571,6.756,6.756,0,0,0,0-8.84,6.065,6.065,0,0,0-4.387-1.571h-3.575v11.982Z" transform="translate(-1417.538 -438.482)" fill="#fff"/></g><g transform="translate(229.297 187.119)"><path d="M472.9,492.3a12.332,12.332,0,0,0,.336,2.838l8.948-14.842A12.4,12.4,0,0,0,472.9,492.3Z" transform="translate(-472.9 -479.942)" fill="#fff"/><path d="M626.041,568.184a12.321,12.321,0,0,0-.325-2.784L616.8,580.177A12.416,12.416,0,0,0,626.041,568.184Z" transform="translate(-601.211 -555.823)" fill="#fff"/><path d="M555.8,502.5l-12.7,21.049a12.519,12.519,0,0,0,3.607.91l11.57-19.175A12.455,12.455,0,0,0,555.8,502.5Z" transform="translate(-535.495 -499.737)" fill="#fff"/><path d="M503.581,477,492,496.208a12.606,12.606,0,0,0,2.492,2.763l12.7-21.049A12.532,12.532,0,0,0,503.581,477Z" transform="translate(-489.931 -477)" fill="#fff"/></g><g transform="translate(249.512 152.647)"><path d="M674,158.8l-.368.628L659.5,183.9h3.911l12.653-21.526Z" transform="translate(-659.5 -158.8)" fill="#fff"/><path d="M890.045,356.9l-2.145,3.64h4.171l.043-.065Z" transform="translate(-863.157 -335.439)" fill="#fff"/><path d="M817.348,290.9,811,301.69h4.171l4.236-7.215Z" transform="translate(-794.588 -276.589)" fill="#fff"/><path d="M744.652,224.8,734.1,242.751h4.16l8.45-14.376Z" transform="translate(-726.018 -217.65)" fill="#fff"/></g></g></svg>